<svg class="xds-icon xds-icon--fill-by-current-color mr-10" xmlns="http://www.w3.org/2000/svg" viewBox="0 0 72 72" style="height: 40px; width: 40px;"><path d="M36,36.5A22.09,22.09,0,0,0,20.3,43l-.2.2,4.1,4.1.2-.2a16.42,16.42,0,0,1,23.2,0l.2.2,4.1-4.1-.2-.2A22.09,22.09,0,0,0,36,36.5Zm0,14.2a4,4,0,1,0,4,4A4,4,0,0,0,36,50.7ZM68,26.5a45.15,45.15,0,0,0-64,0l-.2.2,4.1,4.1.1-.1a39.47,39.47,0,0,1,56-.1l.2.2,4.1-4.1ZM35.8,24.9A33.68,33.68,0,0,0,12,34.7l-.2.2L15.9,39l.2-.2a27.88,27.88,0,0,1,39.5,0l.2.2,4.1-4.1-.2-.2A33.32,33.32,0,0,0,35.8,24.9Z"></path></svg>